<mxfile host="app.diagrams.net" modified="2021-03-03T13:54:12.322Z" agent="5.0 (Windows NT 10.0; Win64; x64) AppleWebKit/537.36 (KHTML, like Gecko) Chrome/88.0.4324.150 Safari/537.36 OPR/74.0.3911.160" etag="kMlvSPwaPQhFXbt9flgL" version="14.4.3" type="github">
  <diagram id="R2lEEEUBdFMjLlhIrx00" name="Page-1">
    <mxGraphModel dx="2232" dy="1864" grid="1" gridSize="10" guides="1" tooltips="1" connect="1" arrows="1" fold="1" page="1" pageScale="1" pageWidth="850" pageHeight="1100" math="0" shadow="0" extFonts="Permanent Marker^https://fonts.googleapis.com/css?family=Permanent+Marker">
      <root>
        <mxCell id="0" />
        <mxCell id="1" parent="0" />
        <mxCell id="6Naf4Phoal-c_pQ7kWCz-1" value="Accessories Product" style="rounded=0;whiteSpace=wrap;html=1;" vertex="1" parent="1">
          <mxGeometry x="340" y="370" width="120" height="60" as="geometry" />
        </mxCell>
        <mxCell id="6Naf4Phoal-c_pQ7kWCz-2" value="Accessories Category" style="rounded=0;whiteSpace=wrap;html=1;" vertex="1" parent="1">
          <mxGeometry x="740" y="370" width="120" height="60" as="geometry" />
        </mxCell>
        <mxCell id="6Naf4Phoal-c_pQ7kWCz-3" value="Order" style="rounded=0;whiteSpace=wrap;html=1;" vertex="1" parent="1">
          <mxGeometry x="340" y="50" width="120" height="60" as="geometry" />
        </mxCell>
        <mxCell id="6Naf4Phoal-c_pQ7kWCz-4" value="Customers" style="rounded=0;whiteSpace=wrap;html=1;" vertex="1" parent="1">
          <mxGeometry x="-50" y="50" width="120" height="60" as="geometry" />
        </mxCell>
        <mxCell id="6Naf4Phoal-c_pQ7kWCz-5" value="ShopOwner" style="rounded=0;whiteSpace=wrap;html=1;" vertex="1" parent="1">
          <mxGeometry x="-50" y="580" width="120" height="60" as="geometry" />
        </mxCell>
        <mxCell id="6Naf4Phoal-c_pQ7kWCz-6" value="Message" style="rounded=0;whiteSpace=wrap;html=1;" vertex="1" parent="1">
          <mxGeometry x="-50" y="330" width="120" height="60" as="geometry" />
        </mxCell>
        <mxCell id="6Naf4Phoal-c_pQ7kWCz-7" value="" style="endArrow=none;html=1;exitX=1;exitY=0.5;exitDx=0;exitDy=0;entryX=0;entryY=0.5;entryDx=0;entryDy=0;" edge="1" parent="1" source="6Naf4Phoal-c_pQ7kWCz-4" target="6Naf4Phoal-c_pQ7kWCz-3">
          <mxGeometry width="50" height="50" relative="1" as="geometry">
            <mxPoint x="400" y="420" as="sourcePoint" />
            <mxPoint x="450" y="370" as="targetPoint" />
          </mxGeometry>
        </mxCell>
        <mxCell id="6Naf4Phoal-c_pQ7kWCz-12" value="1" style="edgeLabel;html=1;align=center;verticalAlign=middle;resizable=0;points=[];" vertex="1" connectable="0" parent="6Naf4Phoal-c_pQ7kWCz-7">
          <mxGeometry x="-0.9185" y="-1" relative="1" as="geometry">
            <mxPoint y="9" as="offset" />
          </mxGeometry>
        </mxCell>
        <mxCell id="6Naf4Phoal-c_pQ7kWCz-8" value="" style="endArrow=none;html=1;entryX=0;entryY=0.5;entryDx=0;entryDy=0;exitX=1;exitY=0.5;exitDx=0;exitDy=0;" edge="1" parent="1" source="6Naf4Phoal-c_pQ7kWCz-1" target="6Naf4Phoal-c_pQ7kWCz-2">
          <mxGeometry width="50" height="50" relative="1" as="geometry">
            <mxPoint x="400" y="420" as="sourcePoint" />
            <mxPoint x="450" y="370" as="targetPoint" />
          </mxGeometry>
        </mxCell>
        <mxCell id="6Naf4Phoal-c_pQ7kWCz-9" value="" style="endArrow=none;html=1;entryX=0.5;entryY=1;entryDx=0;entryDy=0;" edge="1" parent="1" target="6Naf4Phoal-c_pQ7kWCz-3">
          <mxGeometry width="50" height="50" relative="1" as="geometry">
            <mxPoint x="400" y="370" as="sourcePoint" />
            <mxPoint x="450" y="370" as="targetPoint" />
          </mxGeometry>
        </mxCell>
        <mxCell id="6Naf4Phoal-c_pQ7kWCz-10" value="" style="endArrow=none;html=1;exitX=0.5;exitY=1;exitDx=0;exitDy=0;entryX=0.5;entryY=0;entryDx=0;entryDy=0;" edge="1" parent="1" source="6Naf4Phoal-c_pQ7kWCz-4" target="6Naf4Phoal-c_pQ7kWCz-6">
          <mxGeometry width="50" height="50" relative="1" as="geometry">
            <mxPoint x="400" y="420" as="sourcePoint" />
            <mxPoint x="450" y="370" as="targetPoint" />
          </mxGeometry>
        </mxCell>
        <mxCell id="6Naf4Phoal-c_pQ7kWCz-11" value="" style="endArrow=none;html=1;exitX=0.5;exitY=1;exitDx=0;exitDy=0;entryX=0.5;entryY=0;entryDx=0;entryDy=0;" edge="1" parent="1" source="6Naf4Phoal-c_pQ7kWCz-6" target="6Naf4Phoal-c_pQ7kWCz-5">
          <mxGeometry width="50" height="50" relative="1" as="geometry">
            <mxPoint x="400" y="420" as="sourcePoint" />
            <mxPoint x="450" y="370" as="targetPoint" />
          </mxGeometry>
        </mxCell>
        <mxCell id="6Naf4Phoal-c_pQ7kWCz-13" value="N" style="text;html=1;align=center;verticalAlign=middle;resizable=0;points=[];autosize=1;" vertex="1" parent="1">
          <mxGeometry x="320" y="80" width="20" height="20" as="geometry" />
        </mxCell>
        <mxCell id="6Naf4Phoal-c_pQ7kWCz-14" value="N" style="text;html=1;align=center;verticalAlign=middle;resizable=0;points=[];autosize=1;" vertex="1" parent="1">
          <mxGeometry x="410" y="110" width="20" height="20" as="geometry" />
        </mxCell>
        <mxCell id="6Naf4Phoal-c_pQ7kWCz-15" value="N" style="text;html=1;align=center;verticalAlign=middle;resizable=0;points=[];autosize=1;" vertex="1" parent="1">
          <mxGeometry x="410" y="340" width="20" height="20" as="geometry" />
        </mxCell>
        <mxCell id="6Naf4Phoal-c_pQ7kWCz-16" value="1" style="text;html=1;align=center;verticalAlign=middle;resizable=0;points=[];autosize=1;" vertex="1" parent="1">
          <mxGeometry x="720" y="380" width="20" height="20" as="geometry" />
        </mxCell>
        <mxCell id="6Naf4Phoal-c_pQ7kWCz-17" value="N" style="text;html=1;align=center;verticalAlign=middle;resizable=0;points=[];autosize=1;" vertex="1" parent="1">
          <mxGeometry x="460" y="380" width="20" height="20" as="geometry" />
        </mxCell>
        <mxCell id="6Naf4Phoal-c_pQ7kWCz-18" value="1" style="text;html=1;align=center;verticalAlign=middle;resizable=0;points=[];autosize=1;" vertex="1" parent="1">
          <mxGeometry x="10" y="110" width="20" height="20" as="geometry" />
        </mxCell>
        <mxCell id="6Naf4Phoal-c_pQ7kWCz-19" value="N" style="text;html=1;align=center;verticalAlign=middle;resizable=0;points=[];autosize=1;" vertex="1" parent="1">
          <mxGeometry x="10" y="310" width="20" height="20" as="geometry" />
        </mxCell>
        <mxCell id="6Naf4Phoal-c_pQ7kWCz-20" value="1" style="text;html=1;align=center;verticalAlign=middle;resizable=0;points=[];autosize=1;" vertex="1" parent="1">
          <mxGeometry x="10" y="560" width="20" height="20" as="geometry" />
        </mxCell>
        <mxCell id="6Naf4Phoal-c_pQ7kWCz-21" value="N" style="text;html=1;align=center;verticalAlign=middle;resizable=0;points=[];autosize=1;" vertex="1" parent="1">
          <mxGeometry x="10" y="390" width="20" height="20" as="geometry" />
        </mxCell>
        <mxCell id="6Naf4Phoal-c_pQ7kWCz-22" value="ShopOwnerID" style="ellipse;whiteSpace=wrap;html=1;" vertex="1" parent="1">
          <mxGeometry x="100" y="690" width="120" height="80" as="geometry" />
        </mxCell>
        <mxCell id="6Naf4Phoal-c_pQ7kWCz-23" value="Name" style="ellipse;whiteSpace=wrap;html=1;" vertex="1" parent="1">
          <mxGeometry x="-50" y="760" width="120" height="80" as="geometry" />
        </mxCell>
        <mxCell id="6Naf4Phoal-c_pQ7kWCz-24" value="Email" style="ellipse;whiteSpace=wrap;html=1;" vertex="1" parent="1">
          <mxGeometry x="-200" y="690" width="120" height="80" as="geometry" />
        </mxCell>
        <mxCell id="6Naf4Phoal-c_pQ7kWCz-25" value="Content" style="ellipse;whiteSpace=wrap;html=1;" vertex="1" parent="1">
          <mxGeometry x="-220" y="270" width="120" height="80" as="geometry" />
        </mxCell>
        <mxCell id="6Naf4Phoal-c_pQ7kWCz-26" value="TimeOfCreate" style="ellipse;whiteSpace=wrap;html=1;" vertex="1" parent="1">
          <mxGeometry x="-220" y="380" width="120" height="80" as="geometry" />
        </mxCell>
        <mxCell id="6Naf4Phoal-c_pQ7kWCz-27" value="CustomerID" style="ellipse;whiteSpace=wrap;html=1;" vertex="1" parent="1">
          <mxGeometry x="40" y="-130" width="120" height="80" as="geometry" />
        </mxCell>
        <mxCell id="6Naf4Phoal-c_pQ7kWCz-28" value="CustomerName" style="ellipse;whiteSpace=wrap;html=1;" vertex="1" parent="1">
          <mxGeometry x="-110" y="-130" width="120" height="80" as="geometry" />
        </mxCell>
        <mxCell id="6Naf4Phoal-c_pQ7kWCz-29" value="CustomerAddress" style="ellipse;whiteSpace=wrap;html=1;" vertex="1" parent="1">
          <mxGeometry x="-240" y="-80" width="120" height="80" as="geometry" />
        </mxCell>
        <mxCell id="6Naf4Phoal-c_pQ7kWCz-30" value="CustomerPhone" style="ellipse;whiteSpace=wrap;html=1;" vertex="1" parent="1">
          <mxGeometry x="-290" y="20" width="120" height="80" as="geometry" />
        </mxCell>
        <mxCell id="6Naf4Phoal-c_pQ7kWCz-31" value="CustomerEmail" style="ellipse;whiteSpace=wrap;html=1;" vertex="1" parent="1">
          <mxGeometry x="-250" y="120" width="120" height="80" as="geometry" />
        </mxCell>
        <mxCell id="6Naf4Phoal-c_pQ7kWCz-32" value="OderID" style="ellipse;whiteSpace=wrap;html=1;" vertex="1" parent="1">
          <mxGeometry x="300" y="-110" width="120" height="80" as="geometry" />
        </mxCell>
        <mxCell id="6Naf4Phoal-c_pQ7kWCz-33" value="TimeOfCreate" style="ellipse;whiteSpace=wrap;html=1;" vertex="1" parent="1">
          <mxGeometry x="430" y="-130" width="120" height="80" as="geometry" />
        </mxCell>
        <mxCell id="6Naf4Phoal-c_pQ7kWCz-34" value="ProductID" style="ellipse;whiteSpace=wrap;html=1;" vertex="1" parent="1">
          <mxGeometry x="540" y="500" width="120" height="80" as="geometry" />
        </mxCell>
        <mxCell id="6Naf4Phoal-c_pQ7kWCz-35" value="ProductName" style="ellipse;whiteSpace=wrap;html=1;" vertex="1" parent="1">
          <mxGeometry x="400" y="530" width="120" height="80" as="geometry" />
        </mxCell>
        <mxCell id="6Naf4Phoal-c_pQ7kWCz-36" value="Quantity" style="ellipse;whiteSpace=wrap;html=1;" vertex="1" parent="1">
          <mxGeometry x="260" y="530" width="120" height="80" as="geometry" />
        </mxCell>
        <mxCell id="6Naf4Phoal-c_pQ7kWCz-37" value="Price" style="ellipse;whiteSpace=wrap;html=1;" vertex="1" parent="1">
          <mxGeometry x="130" y="450" width="120" height="80" as="geometry" />
        </mxCell>
        <mxCell id="6Naf4Phoal-c_pQ7kWCz-38" value="CategoryID" style="ellipse;whiteSpace=wrap;html=1;" vertex="1" parent="1">
          <mxGeometry x="750" y="170" width="120" height="80" as="geometry" />
        </mxCell>
        <mxCell id="6Naf4Phoal-c_pQ7kWCz-39" value="CategoryName" style="ellipse;whiteSpace=wrap;html=1;" vertex="1" parent="1">
          <mxGeometry x="900" y="260" width="120" height="80" as="geometry" />
        </mxCell>
        <mxCell id="6Naf4Phoal-c_pQ7kWCz-40" value="" style="endArrow=none;html=1;entryX=0.5;entryY=1;entryDx=0;entryDy=0;exitX=0.5;exitY=0;exitDx=0;exitDy=0;" edge="1" parent="1" source="6Naf4Phoal-c_pQ7kWCz-2" target="6Naf4Phoal-c_pQ7kWCz-38">
          <mxGeometry width="50" height="50" relative="1" as="geometry">
            <mxPoint x="370" y="420" as="sourcePoint" />
            <mxPoint x="420" y="370" as="targetPoint" />
          </mxGeometry>
        </mxCell>
        <mxCell id="6Naf4Phoal-c_pQ7kWCz-41" value="" style="endArrow=none;html=1;exitX=1;exitY=0;exitDx=0;exitDy=0;entryX=0;entryY=1;entryDx=0;entryDy=0;" edge="1" parent="1" source="6Naf4Phoal-c_pQ7kWCz-2" target="6Naf4Phoal-c_pQ7kWCz-39">
          <mxGeometry width="50" height="50" relative="1" as="geometry">
            <mxPoint x="870" y="400" as="sourcePoint" />
            <mxPoint x="920" y="350" as="targetPoint" />
          </mxGeometry>
        </mxCell>
        <mxCell id="6Naf4Phoal-c_pQ7kWCz-42" value="" style="endArrow=none;html=1;exitX=1;exitY=1;exitDx=0;exitDy=0;entryX=0;entryY=0;entryDx=0;entryDy=0;" edge="1" parent="1" source="6Naf4Phoal-c_pQ7kWCz-1" target="6Naf4Phoal-c_pQ7kWCz-34">
          <mxGeometry width="50" height="50" relative="1" as="geometry">
            <mxPoint x="470" y="490" as="sourcePoint" />
            <mxPoint x="520" y="440" as="targetPoint" />
          </mxGeometry>
        </mxCell>
        <mxCell id="6Naf4Phoal-c_pQ7kWCz-43" value="" style="endArrow=none;html=1;entryX=0.75;entryY=1;entryDx=0;entryDy=0;exitX=0.5;exitY=0;exitDx=0;exitDy=0;" edge="1" parent="1" source="6Naf4Phoal-c_pQ7kWCz-35" target="6Naf4Phoal-c_pQ7kWCz-1">
          <mxGeometry width="50" height="50" relative="1" as="geometry">
            <mxPoint x="400" y="520" as="sourcePoint" />
            <mxPoint x="450" y="470" as="targetPoint" />
          </mxGeometry>
        </mxCell>
        <mxCell id="6Naf4Phoal-c_pQ7kWCz-44" value="" style="endArrow=none;html=1;entryX=0.25;entryY=1;entryDx=0;entryDy=0;exitX=0.5;exitY=0;exitDx=0;exitDy=0;" edge="1" parent="1" source="6Naf4Phoal-c_pQ7kWCz-36" target="6Naf4Phoal-c_pQ7kWCz-1">
          <mxGeometry width="50" height="50" relative="1" as="geometry">
            <mxPoint x="320" y="520" as="sourcePoint" />
            <mxPoint x="370" y="470" as="targetPoint" />
          </mxGeometry>
        </mxCell>
        <mxCell id="6Naf4Phoal-c_pQ7kWCz-45" value="" style="endArrow=none;html=1;entryX=0;entryY=1;entryDx=0;entryDy=0;" edge="1" parent="1" target="6Naf4Phoal-c_pQ7kWCz-1">
          <mxGeometry width="50" height="50" relative="1" as="geometry">
            <mxPoint x="240" y="470" as="sourcePoint" />
            <mxPoint x="290" y="420" as="targetPoint" />
          </mxGeometry>
        </mxCell>
        <mxCell id="6Naf4Phoal-c_pQ7kWCz-46" value="" style="endArrow=none;html=1;entryX=0.5;entryY=1;entryDx=0;entryDy=0;exitX=0.25;exitY=0;exitDx=0;exitDy=0;" edge="1" parent="1" source="6Naf4Phoal-c_pQ7kWCz-3" target="6Naf4Phoal-c_pQ7kWCz-32">
          <mxGeometry width="50" height="50" relative="1" as="geometry">
            <mxPoint x="330" y="30" as="sourcePoint" />
            <mxPoint x="380" y="-20" as="targetPoint" />
          </mxGeometry>
        </mxCell>
        <mxCell id="6Naf4Phoal-c_pQ7kWCz-47" value="" style="endArrow=none;html=1;entryX=0.283;entryY=0.95;entryDx=0;entryDy=0;entryPerimeter=0;exitX=0.75;exitY=0;exitDx=0;exitDy=0;" edge="1" parent="1" source="6Naf4Phoal-c_pQ7kWCz-3" target="6Naf4Phoal-c_pQ7kWCz-33">
          <mxGeometry width="50" height="50" relative="1" as="geometry">
            <mxPoint x="440" y="60" as="sourcePoint" />
            <mxPoint x="490" y="10" as="targetPoint" />
          </mxGeometry>
        </mxCell>
        <mxCell id="6Naf4Phoal-c_pQ7kWCz-48" value="Address" style="ellipse;whiteSpace=wrap;html=1;" vertex="1" parent="1">
          <mxGeometry x="560" y="-80" width="120" height="80" as="geometry" />
        </mxCell>
        <mxCell id="6Naf4Phoal-c_pQ7kWCz-49" value="" style="endArrow=none;html=1;exitX=1;exitY=0.25;exitDx=0;exitDy=0;entryX=0;entryY=0.5;entryDx=0;entryDy=0;" edge="1" parent="1" source="6Naf4Phoal-c_pQ7kWCz-3" target="6Naf4Phoal-c_pQ7kWCz-48">
          <mxGeometry width="50" height="50" relative="1" as="geometry">
            <mxPoint x="480" y="100" as="sourcePoint" />
            <mxPoint x="530" y="50" as="targetPoint" />
          </mxGeometry>
        </mxCell>
        <mxCell id="6Naf4Phoal-c_pQ7kWCz-50" value="Total" style="ellipse;whiteSpace=wrap;html=1;" vertex="1" parent="1">
          <mxGeometry x="590" y="30" width="120" height="80" as="geometry" />
        </mxCell>
        <mxCell id="6Naf4Phoal-c_pQ7kWCz-51" value="" style="endArrow=none;html=1;exitX=1;exitY=0.5;exitDx=0;exitDy=0;entryX=0;entryY=0.5;entryDx=0;entryDy=0;" edge="1" parent="1" source="6Naf4Phoal-c_pQ7kWCz-3" target="6Naf4Phoal-c_pQ7kWCz-50">
          <mxGeometry width="50" height="50" relative="1" as="geometry">
            <mxPoint x="510" y="120" as="sourcePoint" />
            <mxPoint x="560" y="70" as="targetPoint" />
          </mxGeometry>
        </mxCell>
        <mxCell id="6Naf4Phoal-c_pQ7kWCz-52" value="" style="endArrow=none;html=1;entryX=0;entryY=1;entryDx=0;entryDy=0;" edge="1" parent="1" source="6Naf4Phoal-c_pQ7kWCz-24" target="6Naf4Phoal-c_pQ7kWCz-5">
          <mxGeometry width="50" height="50" relative="1" as="geometry">
            <mxPoint x="-100" y="720" as="sourcePoint" />
            <mxPoint x="-50" y="670" as="targetPoint" />
          </mxGeometry>
        </mxCell>
        <mxCell id="6Naf4Phoal-c_pQ7kWCz-53" value="" style="endArrow=none;html=1;entryX=0.5;entryY=1;entryDx=0;entryDy=0;exitX=0.5;exitY=0;exitDx=0;exitDy=0;" edge="1" parent="1" source="6Naf4Phoal-c_pQ7kWCz-23" target="6Naf4Phoal-c_pQ7kWCz-5">
          <mxGeometry width="50" height="50" relative="1" as="geometry">
            <mxPoint y="710" as="sourcePoint" />
            <mxPoint x="50" y="660" as="targetPoint" />
          </mxGeometry>
        </mxCell>
        <mxCell id="6Naf4Phoal-c_pQ7kWCz-54" value="" style="endArrow=none;html=1;entryX=1;entryY=1;entryDx=0;entryDy=0;exitX=0;exitY=0;exitDx=0;exitDy=0;" edge="1" parent="1" source="6Naf4Phoal-c_pQ7kWCz-22" target="6Naf4Phoal-c_pQ7kWCz-5">
          <mxGeometry width="50" height="50" relative="1" as="geometry">
            <mxPoint x="90" y="710" as="sourcePoint" />
            <mxPoint x="140" y="660" as="targetPoint" />
          </mxGeometry>
        </mxCell>
        <mxCell id="6Naf4Phoal-c_pQ7kWCz-55" value="" style="endArrow=none;html=1;entryX=0;entryY=0;entryDx=0;entryDy=0;exitX=1;exitY=0.5;exitDx=0;exitDy=0;" edge="1" parent="1" source="6Naf4Phoal-c_pQ7kWCz-25" target="6Naf4Phoal-c_pQ7kWCz-6">
          <mxGeometry width="50" height="50" relative="1" as="geometry">
            <mxPoint x="-80" y="340" as="sourcePoint" />
            <mxPoint x="-30" y="290" as="targetPoint" />
          </mxGeometry>
        </mxCell>
        <mxCell id="6Naf4Phoal-c_pQ7kWCz-56" value="" style="endArrow=none;html=1;entryX=0;entryY=1;entryDx=0;entryDy=0;exitX=1;exitY=0.5;exitDx=0;exitDy=0;" edge="1" parent="1" source="6Naf4Phoal-c_pQ7kWCz-26" target="6Naf4Phoal-c_pQ7kWCz-6">
          <mxGeometry width="50" height="50" relative="1" as="geometry">
            <mxPoint x="-90" y="410" as="sourcePoint" />
            <mxPoint x="-40" y="360" as="targetPoint" />
          </mxGeometry>
        </mxCell>
        <mxCell id="6Naf4Phoal-c_pQ7kWCz-57" value="" style="endArrow=none;html=1;entryX=0;entryY=1;entryDx=0;entryDy=0;exitX=1;exitY=0.5;exitDx=0;exitDy=0;" edge="1" parent="1" source="6Naf4Phoal-c_pQ7kWCz-31" target="6Naf4Phoal-c_pQ7kWCz-4">
          <mxGeometry width="50" height="50" relative="1" as="geometry">
            <mxPoint x="-90" y="180" as="sourcePoint" />
            <mxPoint x="-40" y="130" as="targetPoint" />
          </mxGeometry>
        </mxCell>
        <mxCell id="6Naf4Phoal-c_pQ7kWCz-58" value="" style="endArrow=none;html=1;entryX=0;entryY=0.5;entryDx=0;entryDy=0;exitX=1;exitY=0.5;exitDx=0;exitDy=0;" edge="1" parent="1" source="6Naf4Phoal-c_pQ7kWCz-30" target="6Naf4Phoal-c_pQ7kWCz-4">
          <mxGeometry width="50" height="50" relative="1" as="geometry">
            <mxPoint x="-120" y="100" as="sourcePoint" />
            <mxPoint x="-70" y="50" as="targetPoint" />
          </mxGeometry>
        </mxCell>
        <mxCell id="6Naf4Phoal-c_pQ7kWCz-59" value="" style="endArrow=none;html=1;entryX=0;entryY=0;entryDx=0;entryDy=0;exitX=1;exitY=1;exitDx=0;exitDy=0;" edge="1" parent="1" source="6Naf4Phoal-c_pQ7kWCz-29" target="6Naf4Phoal-c_pQ7kWCz-4">
          <mxGeometry width="50" height="50" relative="1" as="geometry">
            <mxPoint x="-110" y="50" as="sourcePoint" />
            <mxPoint x="-60" as="targetPoint" />
          </mxGeometry>
        </mxCell>
        <mxCell id="6Naf4Phoal-c_pQ7kWCz-60" value="" style="endArrow=none;html=1;exitX=0.25;exitY=0;exitDx=0;exitDy=0;entryX=0.5;entryY=1;entryDx=0;entryDy=0;" edge="1" parent="1" source="6Naf4Phoal-c_pQ7kWCz-4" target="6Naf4Phoal-c_pQ7kWCz-28">
          <mxGeometry width="50" height="50" relative="1" as="geometry">
            <mxPoint x="-50" y="40" as="sourcePoint" />
            <mxPoint y="-10" as="targetPoint" />
          </mxGeometry>
        </mxCell>
        <mxCell id="6Naf4Phoal-c_pQ7kWCz-61" value="" style="endArrow=none;html=1;entryX=0;entryY=1;entryDx=0;entryDy=0;exitX=0.5;exitY=0;exitDx=0;exitDy=0;" edge="1" parent="1" source="6Naf4Phoal-c_pQ7kWCz-4" target="6Naf4Phoal-c_pQ7kWCz-27">
          <mxGeometry width="50" height="50" relative="1" as="geometry">
            <mxPoint x="10" y="70" as="sourcePoint" />
            <mxPoint x="60" y="20" as="targetPoint" />
          </mxGeometry>
        </mxCell>
      </root>
    </mxGraphModel>
  </diagram>
</mxfile>
